HIERARCHY
ROOT Hips
{
	OFFSET -3.958830 18.904000 13.208200
	CHANNELS 6 Xposition Yposition Zposition Zrotation Yrotation Xrotation 
	JOINT LHipJoint
	{
		OFFSET 0.000000 0.000000 0.000000
		CHANNELS 3 Zrotation Yrotation Xrotation
		JOINT LeftUpLeg
		{
			OFFSET 1.800000 -1.400000 0.085000
			CHANNELS 3 Zrotation Yrotation Xrotation
			JOINT LeftLeg
			{
				OFFSET 2.215000 -6.000000 0.000000
				CHANNELS 3 Zrotation Yrotation Xrotation
				JOINT LeftFoot
				{
					OFFSET 2.500000 -6.900000 0.000000
					CHANNELS 3 Zrotation Yrotation Xrotation
					JOINT LeftToeBase
					{
						OFFSET 0.200000 -0.500000 1.950000
						CHANNELS 3 Zrotation Yrotation Xrotation
						End Site
						{
							OFFSET 0.000000 0.000000 0.000000
						}
					}
				}
			}
		}
	}
	JOINT RHipJoint
	{
		OFFSET 0.000000 0.000000 0.000000
		CHANNELS 3 Zrotation Yrotation Xrotation
		JOINT RightUpLeg
		{
			OFFSET -1.800000 -1.400000 0.085000
			CHANNELS 3 Zrotation Yrotation Xrotation
			JOINT RightLeg
			{
				OFFSET -2.215000 -6.000000 0.000000
				CHANNELS 3 Zrotation Yrotation Xrotation
				JOINT RightFoot
				{
					OFFSET -2.500000 -6.900000 0.000000
					CHANNELS 3 Zrotation Yrotation Xrotation
					JOINT RightToeBase
					{
						OFFSET -0.200000 -0.500000 1.950000
						CHANNELS 3 Zrotation Yrotation Xrotation
						End Site
						{
							OFFSET 0.000000 0.000000 0.000000
						}
					}
				}
			}
		}
	}
	JOINT LowerBack
	{
		OFFSET 0.000000 0.000000 0.000000
		CHANNELS 3 Zrotation Yrotation Xrotation
		JOINT Spine
		{
			OFFSET -0.087000 1.940000 -0.288900
			CHANNELS 3 Zrotation Yrotation Xrotation
			JOINT Spine1
			{
				OFFSET 0.000000 1.950000 0.060000
				CHANNELS 3 Zrotation Yrotation Xrotation
				JOINT Neck
				{
					OFFSET 0.000000 0.000000 0.000000
					CHANNELS 3 Zrotation Yrotation Xrotation
					JOINT Neck1
					{
						OFFSET 0.000000 1.600000 0.340000
						CHANNELS 3 Zrotation Yrotation Xrotation
						JOINT Head
						{
							OFFSET 0.000000 1.667000 -0.240000
							CHANNELS 3 Zrotation Yrotation Xrotation
							End Site
							{
								OFFSET 0.000000 0.000000 0.000000
							}
						}
					}
				}
				JOINT LeftShoulder
				{
					OFFSET 0.000000 0.000000 0.000000
					CHANNELS 3 Zrotation Yrotation Xrotation
					JOINT LeftArm
					{
						OFFSET 2.700000 1.550000 -0.730000
						CHANNELS 3 Zrotation Yrotation Xrotation
						JOINT LeftForeArm
						{
							OFFSET 5.450000 0.000000 0.000000
							CHANNELS 3 Zrotation Yrotation Xrotation
							JOINT LeftHand
							{
								OFFSET 3.450000 0.000000 0.000000
								CHANNELS 3 Zrotation Yrotation Xrotation
								JOINT LeftHandIndex1
								{
									OFFSET 0.750000 0.000000 0.000000
									CHANNELS 3 Zrotation Yrotation Xrotation
									End Site
									{
										OFFSET 0.000000 0.000000 0.000000
									}
								}
							}
						}
					}
				}
				JOINT RightShoulder
				{
					OFFSET 0.000000 0.000000 0.000000
					CHANNELS 3 Zrotation Yrotation Xrotation
					JOINT RightArm
					{
						OFFSET -2.700000 1.550000 -0.730000
						CHANNELS 3 Zrotation Yrotation Xrotation
						JOINT RightForeArm
						{
							OFFSET -5.450000 0.000000 0.000000
							CHANNELS 3 Zrotation Yrotation Xrotation
							JOINT RightHand
							{
								OFFSET -3.450000 0.000000 0.000000
								CHANNELS 3 Zrotation Yrotation Xrotation
								JOINT RightHandIndex1
								{
									OFFSET -0.750000 0.000000 0.000000
									CHANNELS 3 Zrotation Yrotation Xrotation
									End Site
									{
										OFFSET 0.000000 0.000000 0.000000
									}
								}
							}
						}
					}
				}
			}
		}
	}
}
MOTION
Frames: 6
Frame Time: 0.016667
-4.207710 17.032350 -13.310050 -16.594426 -48.494944 -3.445650 -15.122398 13.201969 3.733768 1.998117 -3.312606 -27.834227 -7.333868 4.090498 8.449671 -0.349637 2.244348 3.567054 0.666340 0.494910 0.746450 18.259525 -10.191700 3.403137 3.954476 8.307592 -5.699951 1.612846 -13.607538 71.324571 -2.383195 -10.954355 0.751890 0.089830 -0.358950 0.133870 -3.597478 -2.947405 -8.124247 12.933952 0.400653 39.087107 -9.528799 6.270026 -5.439612 5.467657 -8.550441 -10.924925 -27.845304 24.408789 46.080505 1.522710 15.289810 -17.107330 -17.640419 6.973246 -2.758730 -42.690010 2.378486 -6.192502 14.945652 -4.019541 -1.033344 -3.465357 2.801268 0.702690 -0.400420 0.524040 0.092850 6.156969 0.775238 6.924231 29.165295 -12.132721 -7.170357 -5.503223 8.334161 -0.155619 2.827861 -0.989725 0.076280 0.030980 -0.352970 -0.175520 
-4.036190 17.136410 -13.486170 -17.664865 -50.280660 -2.682157 -15.132604 13.421582 3.631448 2.926135 -2.948325 -27.954501 -5.682867 4.162094 10.341864 -0.367118 2.256212 3.534529 0.756370 0.563300 0.867040 18.237905 -10.196740 3.381521 4.851501 7.820479 -7.375144 -0.961223 -11.395331 70.583144 -2.318498 -10.548564 0.811450 0.130590 -0.462050 0.162840 -3.507347 -3.266904 -8.021952 12.659695 -0.071251 40.634985 -7.743404 6.214853 -1.919195 4.909567 -8.149141 -11.841117 -28.272754 24.111523 45.245049 -1.805620 16.291570 -18.933080 -18.733989 1.088139 -1.247510 -39.555510 -4.141236 -3.850412 16.277115 -2.546419 -1.006149 -3.397685 2.920772 0.723230 -0.437410 0.580980 0.093390 8.482546 5.768568 7.681494 33.352133 -9.505872 -7.832633 -6.452759 10.097160 -0.401008 2.806145 -1.092108 0.106480 -0.031960 -0.424500 -0.212650 
-3.878460 17.188870 -13.647340 -18.370807 -51.791632 -1.860290 -15.147942 13.491188 3.643866 3.855752 -3.079443 -29.823004 -4.838031 4.983832 16.272398 -0.432894 2.798963 3.312578 0.718950 0.501070 0.921920 18.219504 -10.247108 3.360346 5.603668 7.386246 -9.003907 -3.677136 -9.130980 69.543260 -2.188954 -10.201188 0.889153 0.139020 -0.464400 0.190270 -3.415055 -3.302284 -7.995342 12.130815 0.690414 40.197294 -5.395548 6.963544 3.591644 3.942133 -6.932255 -11.659038 -23.112772 20.800878 45.980466 -7.983850 17.872970 -20.732720 -19.980186 -4.577847 -0.467946 -31.756606 -11.334214 -1.595978 14.964246 -0.703148 -0.937697 -3.530401 2.872491 0.725190 -0.355830 0.556760 0.047010 11.059791 10.238094 8.546138 34.935207 -6.384532 -7.124991 -4.014792 9.667193 -0.426139 2.732087 -1.111389 0.048020 -0.041580 -0.395340 -0.287310 
-3.715510 17.198890 -13.793930 -17.758141 -53.544478 -2.763149 -15.236113 13.603227 3.941866 4.621528 -4.205234 -32.330483 -4.755126 6.805827 26.820313 -0.194145 4.202474 2.718148 0.688550 0.480120 0.934510 18.144320 -10.165881 3.110850 4.903218 6.398405 -9.621057 -6.141686 -6.964529 66.531568 -2.016763 -9.557445 1.045147 0.083060 -0.537380 0.238000 -2.994318 -3.825407 -8.053649 8.827721 1.416087 42.002249 -2.147182 6.694900 6.643024 3.319890 -5.903101 -13.300144 -19.697167 20.136704 47.030874 -11.255430 20.339480 -21.819350 -20.944595 -11.302394 2.664376 -23.005151 -9.894343 -2.328696 15.440819 -2.957726 -1.188166 -3.483379 2.975739 0.699310 -0.353750 0.589650 -0.000550 13.846808 16.903256 10.438051 34.787990 -4.032005 -6.552295 -2.588134 10.776469 -0.387565 2.720108 -1.152759 0.111130 -0.150010 -0.386110 -0.303530 
-3.541290 17.186580 -13.922410 -15.815295 -55.143661 -4.388753 -15.368943 13.560576 4.506414 5.277034 -6.473288 -34.785329 -5.788538 9.248505 37.609752 0.147023 6.296770 1.940311 0.614240 0.379090 0.909530 18.071434 -9.970784 2.633007 2.294305 5.401242 -10.274045 -8.152782 -5.560100 63.927666 -1.846107 -9.052466 1.164017 -0.000920 -0.562370 0.285550 -2.473426 -4.541165 -8.216117 5.101998 2.554078 44.875492 1.115720 6.504664 6.168694 2.806525 -5.638066 -13.922405 -18.673159 20.097013 47.391565 -14.932590 21.891120 -23.290170 -22.466042 -14.579367 3.678429 -14.551053 -9.574774 -3.265819 17.248294 -4.325445 -1.464691 -3.502065 3.006731 0.708940 -0.347330 0.591940 -0.056950 16.990035 20.751442 11.331129 34.113940 -1.057381 -5.727677 -3.776720 10.415255 -0.296479 2.727528 -1.161128 0.131370 -0.218790 -0.323800 -0.324700 
-3.364290 17.143470 -14.057400 -13.518918 -57.494976 -5.865981 -15.577972 13.306509 5.242172 7.294864 -9.120393 -38.086362 -9.713632 13.967193 48.728178 0.799501 9.126861 1.006240 0.603800 0.368780 0.882690 18.015215 -9.495511 2.081791 0.059189 4.860849 -11.381987 -10.529871 -3.875098 62.296156 -1.746258 -8.671337 1.257879 -0.045520 -0.582480 0.313550 -1.829137 -5.506783 -8.512142 0.353100 4.563114 47.770763 5.657295 6.604254 3.703052 2.074160 -6.449097 -14.058009 -20.499997 21.651407 46.385020 -15.874510 22.928840 -24.185680 -23.643607 -15.232388 3.680510 -7.348639 -9.268159 -4.185069 19.861510 -4.718417 -1.552744 -3.465281 3.081092 0.699200 -0.379390 0.614990 -0.048870 20.542455 22.826042 11.697785 31.267227 2.125132 -4.623495 -4.152367 9.943526 -0.177107 2.786555 -1.185017 0.180270 -0.268950 -0.326350 -0.293950 
